HIERARCHY
ROOT Character1_Hips
{
  OFFSET -0.139833 14.4357 -0.25367
  CHANNELS 6 Xposition Yposition Zposition Zrotation Xrotation Yrotation
  JOINT Character1_LeftUpLeg
  {
    OFFSET 1.33984 -0.942852 0
    CHANNELS 6 Xposition Yposition Zposition Zrotation Xrotation Yrotation
    JOINT Character1_LeftLeg
    {
      OFFSET 1.03111 -5.48941 0.514161
      CHANNELS 6 Xposition Yposition Zposition Zrotation Xrotation Yrotation
      JOINT Character1_LeftFoot
      {
        OFFSET 0.584472 -7.37543 -1.61389
        CHANNELS 6 Xposition Yposition Zposition Zrotation Xrotation Yrotation
        JOINT Character1_LeftToeBase
        {
          OFFSET 0.308452 -0.815753 3.43202
          CHANNELS 6 Xposition Yposition Zposition Zrotation Xrotation Yrotation
          End Site
          {
            OFFSET 0 0 0
          }
        }
      }
    }
  }
  JOINT Character1_RightUpLeg
  {
    OFFSET -1.33984 -0.942851 0
    CHANNELS 6 Xposition Yposition Zposition Zrotation Xrotation Yrotation
    JOINT Character1_RightLeg
    {
      OFFSET -1.03111 -5.48941 0.514163
      CHANNELS 6 Xposition Yposition Zposition Zrotation Xrotation Yrotation
      JOINT Character1_RightFoot
      {
        OFFSET -0.584473 -7.37543 -1.61389
        CHANNELS 6 Xposition Yposition Zposition Zrotation Xrotation Yrotation
        JOINT Character1_RightToeBase
        {
          OFFSET -0.308451 -0.815752 3.43202
          CHANNELS 6 Xposition Yposition Zposition Zrotation Xrotation Yrotation
          End Site
          {
            OFFSET 0 0 0
          }
        }
      }
    }
  }
  JOINT Character1_Spine
  {
    OFFSET 0 1.05263 0
    CHANNELS 6 Xposition Yposition Zposition Zrotation Xrotation Yrotation
    JOINT Character1_Spine1
    {
      OFFSET 0 2.01813 0
      CHANNELS 6 Xposition Yposition Zposition Zrotation Xrotation Yrotation
      JOINT Character1_Spine2
      {
        OFFSET 0 2.01813 0
        CHANNELS 6 Xposition Yposition Zposition Zrotation Xrotation Yrotation
        JOINT Character1_LeftShoulder
        {
          OFFSET 1.05262 2.257 0
          CHANNELS 6 Xposition Yposition Zposition Zrotation Xrotation Yrotation
          JOINT Character1_LeftArm
          {
            OFFSET 1.59242 -0.163555 -0.172858
            CHANNELS 6 Xposition Yposition Zposition Zrotation Xrotation Yrotation
            JOINT Character1_LeftForeArm
            {
              OFFSET 4.24536 -1.87801 -0.325393
              CHANNELS 6 Xposition Yposition Zposition Zrotation Xrotation Yrotation
              JOINT Character1_LeftHand
              {
                OFFSET 2.98615 -1.30581 0.326132
                CHANNELS 6 Xposition Yposition Zposition Zrotation Xrotation Yrotation
                JOINT Character1_LeftHandThumb1
                {
                  OFFSET 0.707166 -0.296377 0.777354
                  CHANNELS 6 Xposition Yposition Zposition Zrotation Xrotation Yrotation
                  JOINT Character1_LeftHandThumb2
                  {
                    OFFSET 0.248522 -0.159516 0.331579
                    CHANNELS 6 Xposition Yposition Zposition Zrotation Xrotation Yrotation
                    JOINT Character1_LeftHandThumb3
                    {
                      OFFSET 0.259195 -0.254061 0.227961
                      CHANNELS 6 Xposition Yposition Zposition Zrotation Xrotation Yrotation
                      JOINT Character1_LeftHandThumb4
                      {
                        OFFSET 0.226666 -0.258213 0.206783
                        CHANNELS 6 Xposition Yposition Zposition Zrotation Xrotation Yrotation
                        End Site
                        {
                          OFFSET 0 0 0
                        }
                      }
                    }
                  }
                }
                JOINT Character1_LeftHandIndex1
                {
                  OFFSET 1.48444 -0.354188 0.611987
                  CHANNELS 6 Xposition Yposition Zposition Zrotation Xrotation Yrotation
                  JOINT Character1_LeftHandIndex2
                  {
                    OFFSET 0.504725 -0.451988 0.0493912
                    CHANNELS 6 Xposition Yposition Zposition Zrotation Xrotation Yrotation
                    JOINT Character1_LeftHandIndex3
                    {
                      OFFSET 0.296442 -0.265513 0.0299125
                      CHANNELS 6 Xposition Yposition Zposition Zrotation Xrotation Yrotation
                      JOINT Character1_LeftHandIndex4
                      {
                        OFFSET 0.197651 -0.217277 0.0208597
                        CHANNELS 6 Xposition Yposition Zposition Zrotation Xrotation Yrotation
                        End Site
                        {
                          OFFSET 0 0 0
                        }
                      }
                    }
                  }
                }
                JOINT Character1_LeftHandMiddle1
                {
                  OFFSET 1.48537 -0.317032 0.212679
                  CHANNELS 6 Xposition Yposition Zposition Zrotation Xrotation Yrotation
                  JOINT Character1_LeftHandMiddle2
                  {
                    OFFSET 0.672059 -0.620935 0.0176346
                    CHANNELS 6 Xposition Yposition Zposition Zrotation Xrotation Yrotation
                    JOINT Character1_LeftHandMiddle3
                    {
                      OFFSET 0.264032 -0.321119 0.00884254
                      CHANNELS 6 Xposition Yposition Zposition Zrotation Xrotation Yrotation
                      JOINT Character1_LeftHandMiddle4
                      {
                        OFFSET 0.180854 -0.241264 0.00658421
                        CHANNELS 6 Xposition Yposition Zposition Zrotation Xrotation Yrotation
                        End Site
                        {
                          OFFSET 0 0 0
                        }
                      }
                    }
                  }
                }
                JOINT Character1_LeftHandRing1
                {
                  OFFSET 1.48599 -0.345214 -0.172738
                  CHANNELS 6 Xposition Yposition Zposition Zrotation Xrotation Yrotation
                  JOINT Character1_LeftHandRing2
                  {
                    OFFSET 0.522197 -0.611355 0.0123873
                    CHANNELS 6 Xposition Yposition Zposition Zrotation Xrotation Yrotation
                    JOINT Character1_LeftHandRing3
                    {
                      OFFSET 0.273491 -0.359548 0.00739139
                      CHANNELS 6 Xposition Yposition Zposition Zrotation Xrotation Yrotation
                      JOINT Character1_LeftHandRing4
                      {
                        OFFSET 0.175076 -0.230164 0.00473119
                        CHANNELS 6 Xposition Yposition Zposition Zrotation Xrotation Yrotation
                        End Site
                        {
                          OFFSET 0 0 0
                        }
                      }
                    }
                  }
                }
                JOINT Character1_LeftHandPinky1
                {
                  OFFSET 1.45006 -0.450851 -0.482263
                  CHANNELS 6 Xposition Yposition Zposition Zrotation Xrotation Yrotation
                  JOINT Character1_LeftHandPinky2
                  {
                    OFFSET 0.289756 -0.353117 -0.0298237
                    CHANNELS 6 Xposition Yposition Zposition Zrotation Xrotation Yrotation
                    JOINT Character1_LeftHandPinky3
                    {
                      OFFSET 0.271225 -0.36969 -0.028032
                      CHANNELS 6 Xposition Yposition Zposition Zrotation Xrotation Yrotation
                      JOINT Character1_LeftHandPinky4
                      {
                        OFFSET 0.192972 -0.263027 -0.0199441
                        CHANNELS 6 Xposition Yposition Zposition Zrotation Xrotation Yrotation
                        End Site
                        {
                          OFFSET 0 0 0
                        }
                      }
                    }
                  }
                }
              }
            }
          }
        }
        JOINT Character1_RightShoulder
        {
          OFFSET -1.05263 2.25701 0
          CHANNELS 6 Xposition Yposition Zposition Zrotation Xrotation Yrotation
          JOINT Character1_RightArm
          {
            OFFSET -1.59242 -0.163552 -0.172859
            CHANNELS 6 Xposition Yposition Zposition Zrotation Xrotation Yrotation
            JOINT Character1_RightForeArm
            {
              OFFSET -4.24538 -1.87799 -0.325335
              CHANNELS 6 Xposition Yposition Zposition Zrotation Xrotation Yrotation
              JOINT Character1_RightHand
              {
                OFFSET -2.98616 -1.3058 0.326132
                CHANNELS 6 Xposition Yposition Zposition Zrotation Xrotation Yrotation
                JOINT Character1_RightHandThumb1
                {
                  OFFSET -0.707167 -0.296375 0.777354
                  CHANNELS 6 Xposition Yposition Zposition Zrotation Xrotation Yrotation
                  JOINT Character1_RightHandThumb2
                  {
                    OFFSET -0.248522 -0.159517 0.33158
                    CHANNELS 6 Xposition Yposition Zposition Zrotation Xrotation Yrotation
                    JOINT Character1_RightHandThumb3
                    {
                      OFFSET -0.259195 -0.254063 0.227961
                      CHANNELS 6 Xposition Yposition Zposition Zrotation Xrotation Yrotation
                      JOINT Character1_RightHandThumb4
                      {
                        OFFSET -0.226668 -0.258211 0.206782
                        CHANNELS 6 Xposition Yposition Zposition Zrotation Xrotation Yrotation
                        End Site
                        {
                          OFFSET 0 0 0
                        }
                      }
                    }
                  }
                }
                JOINT Character1_RightHandIndex1
                {
                  OFFSET -1.48444 -0.35419 0.611987
                  CHANNELS 6 Xposition Yposition Zposition Zrotation Xrotation Yrotation
                  JOINT Character1_RightHandIndex2
                  {
                    OFFSET -0.504725 -0.451987 0.049391
                    CHANNELS 6 Xposition Yposition Zposition Zrotation Xrotation Yrotation
                    JOINT Character1_RightHandIndex3
                    {
                      OFFSET -0.296442 -0.265512 0.0299123
                      CHANNELS 6 Xposition Yposition Zposition Zrotation Xrotation Yrotation
                      JOINT Character1_RightHandIndex4
                      {
                        OFFSET -0.197651 -0.217279 0.0208599
                        CHANNELS 6 Xposition Yposition Zposition Zrotation Xrotation Yrotation
                        End Site
                        {
                          OFFSET 0 0 0
                        }
                      }
                    }
                  }
                }
                JOINT Character1_RightHandMiddle1
                {
                  OFFSET -1.48537 -0.317029 0.212679
                  CHANNELS 6 Xposition Yposition Zposition Zrotation Xrotation Yrotation
                  JOINT Character1_RightHandMiddle2
                  {
                    OFFSET -0.67206 -0.620938 0.0176346
                    CHANNELS 6 Xposition Yposition Zposition Zrotation Xrotation Yrotation
                    JOINT Character1_RightHandMiddle3
                    {
                      OFFSET -0.264032 -0.32112 0.00884263
                      CHANNELS 6 Xposition Yposition Zposition Zrotation Xrotation Yrotation
                      JOINT Character1_RightHandMiddle4
                      {
                        OFFSET -0.180854 -0.241264 0.00658385
                        CHANNELS 6 Xposition Yposition Zposition Zrotation Xrotation Yrotation
                        End Site
                        {
                          OFFSET 0 0 0
                        }
                      }
                    }
                  }
                }
                JOINT Character1_RightHandRing1
                {
                  OFFSET -1.48599 -0.345215 -0.172738
                  CHANNELS 6 Xposition Yposition Zposition Zrotation Xrotation Yrotation
                  JOINT Character1_RightHandRing2
                  {
                    OFFSET -0.522198 -0.611355 0.0123875
                    CHANNELS 6 Xposition Yposition Zposition Zrotation Xrotation Yrotation
                    JOINT Character1_RightHandRing3
                    {
                      OFFSET -0.273489 -0.359549 0.00739108
                      CHANNELS 6 Xposition Yposition Zposition Zrotation Xrotation Yrotation
                      JOINT Character1_RightHandRing4
                      {
                        OFFSET -0.175077 -0.230166 0.00473151
                        CHANNELS 6 Xposition Yposition Zposition Zrotation Xrotation Yrotation
                        End Site
                        {
                          OFFSET 0 0 0
                        }
                      }
                    }
                  }
                }
                JOINT Character1_RightHandPinky1
                {
                  OFFSET -1.45006 -0.450851 -0.482263
                  CHANNELS 6 Xposition Yposition Zposition Zrotation Xrotation Yrotation
                  JOINT Character1_RightHandPinky2
                  {
                    OFFSET -0.289757 -0.353119 -0.0298241
                    CHANNELS 6 Xposition Yposition Zposition Zrotation Xrotation Yrotation
                    JOINT Character1_RightHandPinky3
                    {
                      OFFSET -0.271225 -0.36969 -0.028032
                      CHANNELS 6 Xposition Yposition Zposition Zrotation Xrotation Yrotation
                      JOINT Character1_RightHandPinky4
                      {
                        OFFSET -0.192972 -0.263025 -0.0199445
                        CHANNELS 6 Xposition Yposition Zposition Zrotation Xrotation Yrotation
                        End Site
                        {
                          OFFSET 0 0 0
                        }
                      }
                    }
                  }
                }
              }
            }
          }
        }
        JOINT Character1_Neck
        {
          OFFSET 0 2.01813 0
          CHANNELS 6 Xposition Yposition Zposition Zrotation Xrotation Yrotation
          JOINT Character1_Head
          {
            OFFSET 0 3.0075 0
            CHANNELS 6 Xposition Yposition Zposition Zrotation Xrotation Yrotation
            End Site
            {
              OFFSET 0 0 0
            }
          }
        }
      }
    }
  }
}
MOTION
Frames:	2
Frame Time:	0.0166667
-0.139833 14.4357 -0.25367 3.71845 0.131241 -6.91355 1.33984 -0.942852 -9.65886e-008 -2.43152 -22.9835 -3.11258 1.03111 -5.48941 0.514161 1.92791 10.1352 7.54687 0.584472 -7.37543 -1.61389 8.90309 -5.62639 -1.96879 0.308452 -0.815753 3.43202 -1.78666e-005 1.51251e-005 1.61409e-006 -1.33984 -0.942851 3.47118e-011 -5.59684 14.7055 -0.371458 -1.03111 -5.48941 0.514163 0.977608 -1.43803 6.38128 -0.584473 -7.37543 -1.61389 -0.466085 -13.8591 1.17997 -0.308451 -0.815752 3.43202 -1.84298e-014 -6.78431e-007 -1.12671e-015 -1.28611e-007 1.05263 1.13817e-008 -4.39091 0.00726814 8.11732 7.503e-009 2.01813 -7.74365e-008 0.20867 -0.706735 2.45852 1.6512e-009 2.01813 -7.94808e-008 0.155377 -0.720971 2.45844 1.05262 2.257 1.18302e-007 -0.557039 -0.0662856 -0.0598345 1.59242 -0.163555 -0.172858 -49.6918 11.0853 -1.8321 4.24536 -1.87801 -0.325393 -1.5497 -7.59972 -3.19709 2.98615 -1.30581 0.326132 -0.175503 -1.95488 0.852804 0.707166 -0.296377 0.777354 4.0779e-006 3.35055e-006 -1.35214e-006 0.248522 -0.159516 0.331579 -2.8818e-005 -7.04474e-007 -4.29632e-007 0.259195 -0.254061 0.227961 1.25141e-005 4.36726e-006 -1.73291e-007 0.226666 -0.258213 0.206783 -2.12375e-005 1.89027e-006 -6.45736e-006 1.48444 -0.354188 0.611987 4.0779e-006 3.35055e-006 -1.35214e-006 0.504725 -0.451988 0.0493912 -2.8818e-005 -7.04474e-007 -4.29632e-007 0.296442 -0.265513 0.0299125 1.25141e-005 4.36726e-006 -1.73291e-007 0.197651 -0.217277 0.0208597 -2.12375e-005 1.89027e-006 -6.45736e-006 1.48537 -0.317032 0.212679 4.0779e-006 3.35055e-006 -1.35214e-006 0.672059 -0.620935 0.0176346 -2.8818e-005 -7.04474e-007 -4.29632e-007 0.264032 -0.321119 0.00884254 1.25141e-005 4.36726e-006 -1.73291e-007 0.180854 -0.241264 0.00658421 -2.12375e-005 1.89027e-006 -6.45736e-006 1.48599 -0.345214 -0.172738 4.0779e-006 3.35055e-006 -1.35214e-006 0.522197 -0.611355 0.0123873 -2.8818e-005 -7.04474e-007 -4.29632e-007 0.273491 -0.359548 0.00739139 1.25141e-005 4.36726e-006 -1.73291e-007 0.175076 -0.230164 0.00473119 -2.12375e-005 1.89027e-006 -6.45736e-006 1.45006 -0.450851 -0.482263 4.0779e-006 3.35055e-006 -1.35214e-006 0.289756 -0.353117 -0.0298237 -2.8818e-005 -7.04474e-007 -4.29632e-007 0.271225 -0.36969 -0.028032 1.25141e-005 4.36726e-006 -1.73291e-007 0.192972 -0.263027 -0.0199441 -2.12375e-005 1.89027e-006 -6.45736e-006 -1.05263 2.25701 9.35592e-008 -4.45031e-008 -2.74853e-007 1.22901e-006 -1.59242 -0.163552 -0.172859 49.4651 10.9205 9.74336 -4.24538 -1.87799 -0.325335 5.33595 -16.3197 9.89513 -2.98616 -1.3058 0.326132 -0.315407 2.38922 1.0554 -0.707167 -0.296375 0.777354 6.10278e-006 -5.195e-006 -1.09736e-005 -0.248522 -0.159517 0.33158 1.48555e-005 5.09735e-007 -1.8112e-006 -0.259195 -0.254063 0.227961 -6.03181e-005 3.23442e-006 5.84713e-006 -0.226668 -0.258211 0.206782 -1.61186e-005 -2.03225e-005 -5.08749e-006 -1.48444 -0.35419 0.611987 6.10278e-006 -5.195e-006 -1.09736e-005 -0.504725 -0.451987 0.049391 1.48555e-005 5.09735e-007 -1.8112e-006 -0.296442 -0.265512 0.0299123 -6.03181e-005 3.23442e-006 5.84713e-006 -0.197651 -0.217279 0.0208599 -1.61186e-005 -2.03225e-005 -5.08749e-006 -1.48537 -0.317029 0.212679 6.10278e-006 -5.195e-006 -1.09736e-005 -0.67206 -0.620938 0.0176346 1.48555e-005 5.09735e-007 -1.8112e-006 -0.264032 -0.32112 0.00884263 -6.03181e-005 3.23442e-006 5.84713e-006 -0.180854 -0.241264 0.00658385 -1.61186e-005 -2.03225e-005 -5.08749e-006 -1.48599 -0.345215 -0.172738 6.10278e-006 -5.195e-006 -1.09736e-005 -0.522198 -0.611355 0.0123875 1.48555e-005 5.09735e-007 -1.8112e-006 -0.273489 -0.359549 0.00739108 -6.03181e-005 3.23442e-006 5.84713e-006 -0.175077 -0.230166 0.00473151 -1.61186e-005 -2.03225e-005 -5.08749e-006 -1.45006 -0.450851 -0.482263 6.10278e-006 -5.195e-006 -1.09736e-005 -0.289757 -0.353119 -0.0298241 1.48555e-005 5.09735e-007 -1.8112e-006 -0.271225 -0.36969 -0.028032 -6.03181e-005 3.23442e-006 5.84713e-006 -0.192972 -0.263025 -0.0199445 -1.61186e-005 -2.03225e-005 -5.08749e-006 -1.18388e-008 2.01813 1.84013e-007 1.9447e-006 4.80468e-007 -5.05648 -7.48591e-009 3.0075 -2.47226e-007 1.17162e-006 -4.059e-007 -5.05633 
-0.139691 14.4157 -0.261339 3.70983 0.122685 -6.58531 1.33984 -0.942852 -9.65882e-008 -2.44904 -23.4194 -3.18425 1.03111 -5.48941 0.514161 1.74874 10.7945 7.35775 0.584472 -7.37543 -1.61389 8.9979 -4.94707 -1.98195 0.308451 -0.815753 3.43202 -1.78666e-005 1.51252e-005 1.61418e-006 -1.33984 -0.94285 3.51229e-011 -5.47925 15.3758 -0.506027 -1.03111 -5.48941 0.514162 0.84006 -1.66088 6.23457 -0.584473 -7.37543 -1.61389 -0.435174 -13.0828 1.1142 -0.308452 -0.815752 3.43202 -1.84172e-014 -6.78429e-007 -1.12431e-015 1.07545e-007 1.05263 1.13813e-008 -4.37195 0.011918 7.72906 7.50978e-009 2.01813 -7.74312e-008 0.197517 -0.671615 2.33553 1.64341e-009 2.01813 -7.94839e-008 0.146874 -0.685086 2.33546 1.05262 2.25701 1.18299e-007 -0.557039 -0.0662856 -0.0598345 1.59242 -0.163555 -0.172858 -49.6725 11.0792 -1.98409 4.24537 -1.87801 -0.32539 -1.5449 -7.65135 -3.21255 2.98615 -1.30581 0.326132 -0.176589 -1.96806 0.858513 0.707167 -0.296377 0.777353 4.19896e-006 3.35013e-006 -1.35205e-006 0.248522 -0.159516 0.331579 -2.83133e-005 -7.04326e-007 -4.30414e-007 0.259194 -0.254061 0.227961 1.25698e-005 4.3678e-006 -1.72843e-007 0.226667 -0.258213 0.206783 -4.41133e-005 1.88976e-006 -6.45669e-006 1.48444 -0.354189 0.611987 4.19896e-006 3.35013e-006 -1.35205e-006 0.504725 -0.451988 0.0493912 -2.83133e-005 -7.04326e-007 -4.30414e-007 0.296442 -0.265512 0.0299125 1.25698e-005 4.3678e-006 -1.72843e-007 0.197651 -0.217278 0.0208597 -4.41133e-005 1.88976e-006 -6.45669e-006 1.48537 -0.317032 0.212679 4.19896e-006 3.35013e-006 -1.35205e-006 0.67206 -0.620936 0.0176346 -2.83133e-005 -7.04326e-007 -4.30414e-007 0.264032 -0.32112 0.00884254 1.25698e-005 4.3678e-006 -1.72843e-007 0.180854 -0.241264 0.00658421 -4.41133e-005 1.88976e-006 -6.45669e-006 1.48599 -0.345214 -0.172738 4.19896e-006 3.35013e-006 -1.35205e-006 0.522197 -0.611355 0.0123873 -2.83133e-005 -7.04326e-007 -4.30414e-007 0.273491 -0.359549 0.00739139 1.25698e-005 4.3678e-006 -1.72843e-007 0.175076 -0.230164 0.00473119 -4.41133e-005 1.88976e-006 -6.45669e-006 1.45006 -0.450851 -0.482263 4.19896e-006 3.35013e-006 -1.35205e-006 0.289756 -0.353117 -0.0298237 -2.83133e-005 -7.04326e-007 -4.30414e-007 0.271225 -0.36969 -0.028032 1.25698e-005 4.3678e-006 -1.72843e-007 0.192971 -0.263027 -0.0199441 -4.41133e-005 1.88976e-006 -6.45669e-006 -1.05263 2.25701 9.35626e-008 -4.45031e-008 -2.74853e-007 1.22901e-006 -1.59242 -0.163553 -0.172859 49.5477 10.9511 9.29104 -4.24537 -1.878 -0.32534 5.36447 -16.1431 9.99977 -2.98616 -1.3058 0.32613 -0.312803 2.36831 1.04602 -0.707167 -0.296375 0.777353 3.79854e-006 -5.19143e-006 -1.0975e-005 -0.248522 -0.159517 0.331579 1.49098e-005 5.08601e-007 -1.81044e-006 -0.259195 -0.254063 0.227961 -6.05212e-005 3.23629e-006 5.847e-006 -0.226667 -0.258211 0.206782 -1.62544e-005 -2.03266e-005 -5.08633e-006 -1.48444 -0.35419 0.611986 3.79854e-006 -5.19143e-006 -1.0975e-005 -0.504724 -0.451986 0.049391 1.49098e-005 5.08601e-007 -1.81044e-006 -0.296442 -0.265512 0.0299126 -6.05212e-005 3.23629e-006 5.847e-006 -0.197651 -0.217279 0.0208598 -1.62544e-005 -2.03266e-005 -5.08633e-006 -1.48537 -0.317029 0.212679 3.79854e-006 -5.19143e-006 -1.0975e-005 -0.67206 -0.620937 0.0176348 1.49098e-005 5.08601e-007 -1.81044e-006 -0.264031 -0.321119 0.00884279 -6.05212e-005 3.23629e-006 5.847e-006 -0.180854 -0.241264 0.0065836 -1.62544e-005 -2.03266e-005 -5.08633e-006 -1.48599 -0.345215 -0.172738 3.79854e-006 -5.19143e-006 -1.0975e-005 -0.522198 -0.611354 0.0123875 1.49098e-005 5.08601e-007 -1.81044e-006 -0.273489 -0.359549 0.00739107 -6.05212e-005 3.23629e-006 5.847e-006 -0.175077 -0.230166 0.0047315 -1.62544e-005 -2.03266e-005 -5.08633e-006 -1.45006 -0.450851 -0.482263 3.79854e-006 -5.19143e-006 -1.0975e-005 -0.289757 -0.353119 -0.0298241 1.49098e-005 5.08601e-007 -1.81044e-006 -0.271225 -0.36969 -0.028032 -6.05212e-005 3.23629e-006 5.847e-006 -0.192972 -0.263025 -0.0199444 -1.62544e-005 -2.03266e-005 -5.08633e-006 -1.18269e-008 2.01813 1.84018e-007 1.94255e-006 4.80379e-007 -4.80366 -7.48798e-009 3.0075 -2.47244e-007 1.17342e-006 -4.0613e-007 -4.80352 
